<mxfile host="app.diagrams.net" modified="2022-11-05T10:21:56.400Z" agent="5.0 (Windows)" etag="S9PW_9_AdO09Bl3nis7N" version="20.5.1" type="github">
  <diagram id="uVGfITCaFiUJm7X7XIJg" name="Seite-1">
    <mxGraphModel dx="2249" dy="772" grid="1" gridSize="10" guides="1" tooltips="1" connect="1" arrows="1" fold="1" page="1" pageScale="1" pageWidth="827" pageHeight="1169" math="0" shadow="0">
      <root>
        <mxCell id="0" />
        <mxCell id="1" style="" parent="0" />
        <mxCell id="wEpryMoChp48_agsQIqM-1" value="Patient" style="shape=umlActor;verticalLabelPosition=bottom;verticalAlign=top;html=1;outlineConnect=0;" parent="1" vertex="1">
          <mxGeometry x="20" y="330" width="30" height="60" as="geometry" />
        </mxCell>
        <mxCell id="wEpryMoChp48_agsQIqM-2" value="Arzt" style="shape=umlActor;verticalLabelPosition=bottom;verticalAlign=top;html=1;outlineConnect=0;" parent="1" vertex="1">
          <mxGeometry x="20" y="470" width="30" height="60" as="geometry" />
        </mxCell>
        <mxCell id="wEpryMoChp48_agsQIqM-3" value="&lt;div&gt;Plattform-&lt;/div&gt;&lt;div&gt;administrator&lt;/div&gt;" style="shape=umlActor;verticalLabelPosition=bottom;verticalAlign=top;html=1;outlineConnect=0;" parent="1" vertex="1">
          <mxGeometry x="20" y="180" width="30" height="60" as="geometry" />
        </mxCell>
        <mxCell id="wEpryMoChp48_agsQIqM-12" style="rounded=0;orthogonalLoop=1;jettySize=auto;html=1;exitX=1;exitY=0.5;exitDx=0;exitDy=0;entryX=0.025;entryY=0.583;entryDx=0;entryDy=0;startArrow=none;startFill=0;entryPerimeter=0;" parent="1" source="wEpryMoChp48_agsQIqM-5" target="wEpryMoChp48_agsQIqM-10" edge="1">
          <mxGeometry relative="1" as="geometry">
            <mxPoint x="180" y="250" as="targetPoint" />
          </mxGeometry>
        </mxCell>
        <mxCell id="wEpryMoChp48_agsQIqM-5" value="&lt;div&gt;Web-&lt;/div&gt;&lt;div&gt;browser&lt;br&gt;&lt;/div&gt;" style="rounded=0;whiteSpace=wrap;html=1;" parent="1" vertex="1">
          <mxGeometry x="60" y="350" width="80" height="40" as="geometry" />
        </mxCell>
        <mxCell id="vUiKdmdn5uc14WwvOCr_-9" style="edgeStyle=orthogonalEdgeStyle;rounded=0;orthogonalLoop=1;jettySize=auto;html=1;exitX=1;exitY=0.75;exitDx=0;exitDy=0;entryX=0;entryY=0.75;entryDx=0;entryDy=0;startArrow=none;startFill=0;endArrow=classic;endFill=1;" parent="1" source="wEpryMoChp48_agsQIqM-6" target="wEpryMoChp48_agsQIqM-14" edge="1">
          <mxGeometry relative="1" as="geometry">
            <Array as="points">
              <mxPoint x="140" y="510" />
              <mxPoint x="170" y="510" />
              <mxPoint x="170" y="600" />
            </Array>
          </mxGeometry>
        </mxCell>
        <mxCell id="wEpryMoChp48_agsQIqM-6" value="&lt;div&gt;Web-&lt;/div&gt;&lt;div&gt;browser&lt;br&gt;&lt;/div&gt;" style="rounded=0;whiteSpace=wrap;html=1;" parent="1" vertex="1">
          <mxGeometry x="60" y="490" width="80" height="40" as="geometry" />
        </mxCell>
        <mxCell id="wEpryMoChp48_agsQIqM-7" value="&lt;div&gt;Web-&lt;/div&gt;&lt;div&gt;browser&lt;br&gt;&lt;/div&gt;" style="rounded=0;whiteSpace=wrap;html=1;" parent="1" vertex="1">
          <mxGeometry x="60" y="200" width="80" height="40" as="geometry" />
        </mxCell>
        <mxCell id="wEpryMoChp48_agsQIqM-14" value="&lt;div&gt;Externer&lt;/div&gt;&lt;div&gt;IDP&lt;br&gt;&lt;/div&gt;" style="rounded=0;whiteSpace=wrap;html=1;" parent="1" vertex="1">
          <mxGeometry x="480" y="555" width="120" height="60" as="geometry" />
        </mxCell>
        <mxCell id="wEpryMoChp48_agsQIqM-18" style="edgeStyle=orthogonalEdgeStyle;rounded=0;orthogonalLoop=1;jettySize=auto;html=1;exitX=1;exitY=0.5;exitDx=0;exitDy=0;startArrow=none;startFill=0;" parent="1" source="wEpryMoChp48_agsQIqM-15" target="wEpryMoChp48_agsQIqM-16" edge="1">
          <mxGeometry relative="1" as="geometry" />
        </mxCell>
        <mxCell id="wEpryMoChp48_agsQIqM-25" style="edgeStyle=orthogonalEdgeStyle;rounded=0;orthogonalLoop=1;jettySize=auto;html=1;exitX=0.5;exitY=1;exitDx=0;exitDy=0;entryX=0.5;entryY=0;entryDx=0;entryDy=0;" parent="1" source="wEpryMoChp48_agsQIqM-15" target="wEpryMoChp48_agsQIqM-17" edge="1">
          <mxGeometry relative="1" as="geometry" />
        </mxCell>
        <mxCell id="wEpryMoChp48_agsQIqM-15" value="&lt;div&gt;Dateiverwaltungs-&lt;/div&gt;&lt;div&gt;dienst&lt;br&gt;&lt;/div&gt;" style="rounded=0;whiteSpace=wrap;html=1;" parent="1" vertex="1">
          <mxGeometry x="480" y="230" width="120" height="60" as="geometry" />
        </mxCell>
        <mxCell id="jYVqGs-6-Orzp6eaTr2p-7" style="edgeStyle=orthogonalEdgeStyle;rounded=0;orthogonalLoop=1;jettySize=auto;html=1;exitX=0.5;exitY=1;exitDx=0;exitDy=0;" parent="1" source="wEpryMoChp48_agsQIqM-16" edge="1">
          <mxGeometry relative="1" as="geometry">
            <mxPoint x="600" y="350" as="targetPoint" />
            <Array as="points">
              <mxPoint x="780" y="350" />
              <mxPoint x="600" y="350" />
            </Array>
          </mxGeometry>
        </mxCell>
        <mxCell id="wEpryMoChp48_agsQIqM-16" value="Dateiablage-datenbank" style="rounded=0;whiteSpace=wrap;html=1;" parent="1" vertex="1">
          <mxGeometry x="720" y="230" width="120" height="60" as="geometry" />
        </mxCell>
        <mxCell id="wEpryMoChp48_agsQIqM-17" value="Logserver (optional)" style="rounded=0;whiteSpace=wrap;html=1;" parent="1" vertex="1">
          <mxGeometry x="480" y="330" width="120" height="60" as="geometry" />
        </mxCell>
        <mxCell id="jYVqGs-6-Orzp6eaTr2p-5" style="edgeStyle=orthogonalEdgeStyle;rounded=0;orthogonalLoop=1;jettySize=auto;html=1;startArrow=none;startFill=0;endArrow=classic;endFill=1;" parent="1" source="jYVqGs-6-Orzp6eaTr2p-1" target="wEpryMoChp48_agsQIqM-15" edge="1">
          <mxGeometry relative="1" as="geometry" />
        </mxCell>
        <mxCell id="TmFTIvGwxBlVvHUdlRh2-19" style="edgeStyle=orthogonalEdgeStyle;rounded=0;orthogonalLoop=1;jettySize=auto;html=1;exitX=1;exitY=1;exitDx=0;exitDy=0;exitPerimeter=0;curved=1;" edge="1" parent="1" source="jYVqGs-6-Orzp6eaTr2p-1" target="TmFTIvGwxBlVvHUdlRh2-1">
          <mxGeometry relative="1" as="geometry">
            <Array as="points">
              <mxPoint x="630" y="110" />
              <mxPoint x="630" y="455" />
            </Array>
          </mxGeometry>
        </mxCell>
        <mxCell id="jYVqGs-6-Orzp6eaTr2p-1" value="&lt;div&gt;Anwendungs-&lt;/div&gt;&lt;div&gt;administrator&lt;/div&gt;" style="shape=umlActor;verticalLabelPosition=bottom;verticalAlign=top;html=1;outlineConnect=0;" parent="1" vertex="1">
          <mxGeometry x="525" y="50" width="30" height="60" as="geometry" />
        </mxCell>
        <mxCell id="jYVqGs-6-Orzp6eaTr2p-6" style="edgeStyle=orthogonalEdgeStyle;rounded=0;orthogonalLoop=1;jettySize=auto;html=1;startArrow=none;startFill=0;" parent="1" source="jYVqGs-6-Orzp6eaTr2p-2" target="wEpryMoChp48_agsQIqM-16" edge="1">
          <mxGeometry relative="1" as="geometry" />
        </mxCell>
        <mxCell id="jYVqGs-6-Orzp6eaTr2p-2" value="&lt;div&gt;Datenbank-&lt;/div&gt;&lt;div&gt;administrator&lt;/div&gt;" style="shape=umlActor;verticalLabelPosition=bottom;verticalAlign=top;html=1;outlineConnect=0;" parent="1" vertex="1">
          <mxGeometry x="765" y="50" width="30" height="60" as="geometry" />
        </mxCell>
        <mxCell id="TmFTIvGwxBlVvHUdlRh2-16" style="edgeStyle=orthogonalEdgeStyle;rounded=0;orthogonalLoop=1;jettySize=auto;html=1;entryX=0.5;entryY=0;entryDx=0;entryDy=0;" edge="1" parent="1" source="-QTAtKX09mSlTEPiPCkI-65" target="wEpryMoChp48_agsQIqM-10">
          <mxGeometry relative="1" as="geometry" />
        </mxCell>
        <mxCell id="-QTAtKX09mSlTEPiPCkI-65" value="&lt;div&gt;Webserver-&lt;/div&gt;&lt;div&gt;administrator&lt;/div&gt;" style="shape=umlActor;verticalLabelPosition=bottom;verticalAlign=top;html=1;outlineConnect=0;" parent="1" vertex="1">
          <mxGeometry x="305" y="50" width="30" height="60" as="geometry" />
        </mxCell>
        <mxCell id="vUiKdmdn5uc14WwvOCr_-1" value="" style="endArrow=classic;html=1;rounded=0;exitX=1;exitY=0.75;exitDx=0;exitDy=0;entryX=0;entryY=0.25;entryDx=0;entryDy=0;edgeStyle=orthogonalEdgeStyle;" parent="1" source="wEpryMoChp48_agsQIqM-5" target="wEpryMoChp48_agsQIqM-14" edge="1">
          <mxGeometry width="50" height="50" relative="1" as="geometry">
            <mxPoint x="530" y="340" as="sourcePoint" />
            <mxPoint x="580" y="290" as="targetPoint" />
            <Array as="points">
              <mxPoint x="190" y="380" />
              <mxPoint x="190" y="570" />
            </Array>
          </mxGeometry>
        </mxCell>
        <mxCell id="vUiKdmdn5uc14WwvOCr_-20" style="edgeStyle=orthogonalEdgeStyle;rounded=0;orthogonalLoop=1;jettySize=auto;html=1;exitX=1;exitY=0.25;exitDx=0;exitDy=0;startArrow=none;startFill=0;entryX=0.25;entryY=1;entryDx=0;entryDy=0;" parent="1" edge="1" target="wEpryMoChp48_agsQIqM-10" source="wEpryMoChp48_agsQIqM-6">
          <mxGeometry relative="1" as="geometry">
            <mxPoint x="160" y="370" as="sourcePoint" />
            <mxPoint x="250" y="450" as="targetPoint" />
            <Array as="points">
              <mxPoint x="300" y="500" />
            </Array>
          </mxGeometry>
        </mxCell>
        <mxCell id="vUiKdmdn5uc14WwvOCr_-21" style="edgeStyle=orthogonalEdgeStyle;rounded=0;orthogonalLoop=1;jettySize=auto;html=1;startArrow=none;startFill=0;exitX=0.75;exitY=1;exitDx=0;exitDy=0;" parent="1" edge="1" target="TmFTIvGwxBlVvHUdlRh2-1" source="wEpryMoChp48_agsQIqM-10">
          <mxGeometry relative="1" as="geometry">
            <mxPoint x="330" y="330" as="sourcePoint" />
            <mxPoint x="330" y="410" as="targetPoint" />
            <Array as="points">
              <mxPoint x="340" y="460" />
            </Array>
          </mxGeometry>
        </mxCell>
        <mxCell id="TmFTIvGwxBlVvHUdlRh2-3" style="edgeStyle=orthogonalEdgeStyle;rounded=0;orthogonalLoop=1;jettySize=auto;html=1;exitX=0.5;exitY=0;exitDx=0;exitDy=0;entryX=0.5;entryY=1;entryDx=0;entryDy=0;startArrow=none;" edge="1" parent="1" target="wEpryMoChp48_agsQIqM-17">
          <mxGeometry relative="1" as="geometry">
            <mxPoint x="540" y="400" as="sourcePoint" />
          </mxGeometry>
        </mxCell>
        <mxCell id="TmFTIvGwxBlVvHUdlRh2-5" style="edgeStyle=orthogonalEdgeStyle;rounded=0;orthogonalLoop=1;jettySize=auto;html=1;exitX=1;exitY=0.5;exitDx=0;exitDy=0;entryX=0;entryY=0.5;entryDx=0;entryDy=0;" edge="1" parent="1" source="TmFTIvGwxBlVvHUdlRh2-1" target="TmFTIvGwxBlVvHUdlRh2-2">
          <mxGeometry relative="1" as="geometry" />
        </mxCell>
        <mxCell id="TmFTIvGwxBlVvHUdlRh2-1" value="&lt;div&gt;Authentifizierungs-&lt;/div&gt;&lt;div&gt;dienst&lt;br&gt;&lt;/div&gt;" style="rounded=0;whiteSpace=wrap;html=1;" vertex="1" parent="1">
          <mxGeometry x="480" y="430" width="120" height="60" as="geometry" />
        </mxCell>
        <mxCell id="TmFTIvGwxBlVvHUdlRh2-4" style="edgeStyle=orthogonalEdgeStyle;rounded=0;orthogonalLoop=1;jettySize=auto;html=1;exitX=0.5;exitY=0;exitDx=0;exitDy=0;" edge="1" parent="1" source="TmFTIvGwxBlVvHUdlRh2-2">
          <mxGeometry relative="1" as="geometry">
            <mxPoint x="600" y="370" as="targetPoint" />
            <Array as="points">
              <mxPoint x="780" y="370" />
              <mxPoint x="600" y="370" />
            </Array>
          </mxGeometry>
        </mxCell>
        <mxCell id="TmFTIvGwxBlVvHUdlRh2-2" value="Authentifizierungs-datenbank" style="rounded=0;whiteSpace=wrap;html=1;" vertex="1" parent="1">
          <mxGeometry x="720" y="430" width="120" height="60" as="geometry" />
        </mxCell>
        <mxCell id="TmFTIvGwxBlVvHUdlRh2-8" style="edgeStyle=orthogonalEdgeStyle;rounded=0;orthogonalLoop=1;jettySize=auto;html=1;" edge="1" parent="1" source="wEpryMoChp48_agsQIqM-10" target="wEpryMoChp48_agsQIqM-17">
          <mxGeometry relative="1" as="geometry">
            <mxPoint x="370" y="363" as="sourcePoint" />
            <mxPoint x="470" y="363" as="targetPoint" />
          </mxGeometry>
        </mxCell>
        <mxCell id="TmFTIvGwxBlVvHUdlRh2-40" style="edgeStyle=orthogonalEdgeStyle;rounded=0;orthogonalLoop=1;jettySize=auto;html=1;exitX=0.75;exitY=0;exitDx=0;exitDy=0;" edge="1" parent="1" source="wEpryMoChp48_agsQIqM-10">
          <mxGeometry relative="1" as="geometry">
            <mxPoint x="480" y="260" as="targetPoint" />
            <Array as="points">
              <mxPoint x="340" y="260" />
              <mxPoint x="480" y="260" />
            </Array>
          </mxGeometry>
        </mxCell>
        <mxCell id="wEpryMoChp48_agsQIqM-10" value="&lt;div&gt;Webserver&lt;/div&gt;" style="rounded=0;whiteSpace=wrap;html=1;" parent="1" vertex="1">
          <mxGeometry x="280" y="300" width="80" height="120" as="geometry" />
        </mxCell>
        <mxCell id="TmFTIvGwxBlVvHUdlRh2-20" style="edgeStyle=orthogonalEdgeStyle;rounded=0;orthogonalLoop=1;jettySize=auto;html=1;curved=1;exitX=1;exitY=1;exitDx=0;exitDy=0;exitPerimeter=0;" edge="1" parent="1" source="jYVqGs-6-Orzp6eaTr2p-2" target="TmFTIvGwxBlVvHUdlRh2-2">
          <mxGeometry relative="1" as="geometry">
            <mxPoint x="800" y="110" as="sourcePoint" />
            <mxPoint x="840" y="450" as="targetPoint" />
            <Array as="points">
              <mxPoint x="865" y="110" />
              <mxPoint x="865" y="455" />
            </Array>
          </mxGeometry>
        </mxCell>
        <mxCell id="TmFTIvGwxBlVvHUdlRh2-77" value="" style="edgeStyle=orthogonalEdgeStyle;rounded=0;orthogonalLoop=1;jettySize=auto;html=1;exitX=0.5;exitY=1;exitDx=0;exitDy=0;endArrow=none;" edge="1" parent="1" source="TmFTIvGwxBlVvHUdlRh2-1">
          <mxGeometry relative="1" as="geometry">
            <mxPoint x="540" y="490" as="sourcePoint" />
            <mxPoint x="540" y="510" as="targetPoint" />
          </mxGeometry>
        </mxCell>
        <mxCell id="TmFTIvGwxBlVvHUdlRh2-110" style="edgeStyle=orthogonalEdgeStyle;rounded=0;orthogonalLoop=1;jettySize=auto;html=1;exitX=1;exitY=0.5;exitDx=0;exitDy=0;entryX=0.013;entryY=0.333;entryDx=0;entryDy=0;entryPerimeter=0;" edge="1" parent="1">
          <mxGeometry relative="1" as="geometry">
            <mxPoint x="140" y="220" as="sourcePoint" />
            <mxPoint x="281.03999999999996" y="339.96000000000004" as="targetPoint" />
            <Array as="points">
              <mxPoint x="210" y="220" />
              <mxPoint x="210" y="340" />
            </Array>
          </mxGeometry>
        </mxCell>
        <mxCell id="TmFTIvGwxBlVvHUdlRh2-125" value="" style="edgeStyle=orthogonalEdgeStyle;rounded=0;orthogonalLoop=1;jettySize=auto;html=1;exitX=0.5;exitY=0;exitDx=0;exitDy=0;entryX=0.5;entryY=1;entryDx=0;entryDy=0;endArrow=none;" edge="1" parent="1" source="TmFTIvGwxBlVvHUdlRh2-1" target="wEpryMoChp48_agsQIqM-17">
          <mxGeometry relative="1" as="geometry">
            <mxPoint x="540" y="430" as="sourcePoint" />
            <mxPoint x="540" y="420" as="targetPoint" />
          </mxGeometry>
        </mxCell>
        <mxCell id="TmFTIvGwxBlVvHUdlRh2-129" style="edgeStyle=orthogonalEdgeStyle;rounded=0;orthogonalLoop=1;jettySize=auto;html=1;exitX=0.5;exitY=1;exitDx=0;exitDy=0;startArrow=none;" edge="1" parent="1">
          <mxGeometry relative="1" as="geometry">
            <mxPoint x="540" y="490" as="sourcePoint" />
            <mxPoint x="540" y="555" as="targetPoint" />
          </mxGeometry>
        </mxCell>
        <mxCell id="jYVqGs-6-Orzp6eaTr2p-8" value="Technisch" style="locked=1;" parent="0" />
        <mxCell id="jYVqGs-6-Orzp6eaTr2p-11" value="(PostgreSQL)" style="text;html=1;strokeColor=none;fillColor=none;align=center;verticalAlign=middle;whiteSpace=wrap;rounded=0;fontColor=#0000ff;" parent="jYVqGs-6-Orzp6eaTr2p-8" vertex="1">
          <mxGeometry x="720" y="470" width="120" height="20" as="geometry" />
        </mxCell>
        <mxCell id="jYVqGs-6-Orzp6eaTr2p-12" value="(DJango, Python)" style="text;html=1;strokeColor=none;fillColor=none;align=center;verticalAlign=middle;whiteSpace=wrap;rounded=0;fontColor=#0000ff;" parent="jYVqGs-6-Orzp6eaTr2p-8" vertex="1">
          <mxGeometry x="280" y="300" width="80" height="30" as="geometry" />
        </mxCell>
        <mxCell id="jYVqGs-6-Orzp6eaTr2p-13" value="(Python)" style="text;html=1;strokeColor=none;fillColor=none;align=center;verticalAlign=middle;whiteSpace=wrap;rounded=0;fontColor=#0000ff;" parent="jYVqGs-6-Orzp6eaTr2p-8" vertex="1">
          <mxGeometry x="480" y="470" width="120" height="20" as="geometry" />
        </mxCell>
        <mxCell id="jYVqGs-6-Orzp6eaTr2p-14" value="(Vue.js)" style="text;html=1;strokeColor=none;fillColor=none;align=center;verticalAlign=middle;whiteSpace=wrap;rounded=0;fontColor=#0000ff;" parent="jYVqGs-6-Orzp6eaTr2p-8" vertex="1">
          <mxGeometry x="60" y="240" width="80" height="20" as="geometry" />
        </mxCell>
        <mxCell id="jYVqGs-6-Orzp6eaTr2p-15" value="(Vue.js)" style="text;html=1;strokeColor=none;fillColor=none;align=center;verticalAlign=middle;whiteSpace=wrap;rounded=0;fontColor=#0000ff;" parent="jYVqGs-6-Orzp6eaTr2p-8" vertex="1">
          <mxGeometry x="60" y="390" width="80" height="20" as="geometry" />
        </mxCell>
        <mxCell id="jYVqGs-6-Orzp6eaTr2p-16" value="(Vue.js)" style="text;html=1;strokeColor=none;fillColor=none;align=center;verticalAlign=middle;whiteSpace=wrap;rounded=0;fontColor=#0000ff;" parent="jYVqGs-6-Orzp6eaTr2p-8" vertex="1">
          <mxGeometry x="60" y="530" width="80" height="20" as="geometry" />
        </mxCell>
        <mxCell id="jYVqGs-6-Orzp6eaTr2p-17" value="HTTP/TLS" style="text;html=1;strokeColor=none;fillColor=none;align=center;verticalAlign=middle;whiteSpace=wrap;rounded=0;fontColor=#0000ff;" parent="jYVqGs-6-Orzp6eaTr2p-8" vertex="1">
          <mxGeometry x="380" y="240" width="80" height="20" as="geometry" />
        </mxCell>
        <mxCell id="jYVqGs-6-Orzp6eaTr2p-18" value="PSQL/TLS" style="text;html=1;strokeColor=none;fillColor=none;align=center;verticalAlign=middle;whiteSpace=wrap;rounded=0;fontColor=#0000ff;" parent="jYVqGs-6-Orzp6eaTr2p-8" vertex="1">
          <mxGeometry x="620" y="440" width="80" height="20" as="geometry" />
        </mxCell>
        <mxCell id="jYVqGs-6-Orzp6eaTr2p-20" value="HTTP/TLS" style="text;html=1;strokeColor=none;fillColor=none;align=center;verticalAlign=middle;whiteSpace=wrap;rounded=0;fontColor=#0000ff;" parent="jYVqGs-6-Orzp6eaTr2p-8" vertex="1">
          <mxGeometry x="290" y="585" width="80" height="20" as="geometry" />
        </mxCell>
        <mxCell id="jYVqGs-6-Orzp6eaTr2p-21" value="HTTP/TLS" style="text;html=1;strokeColor=none;fillColor=none;align=center;verticalAlign=middle;whiteSpace=wrap;rounded=0;fontColor=#0000ff;" parent="jYVqGs-6-Orzp6eaTr2p-8" vertex="1">
          <mxGeometry x="220" y="480" width="80" height="20" as="geometry" />
        </mxCell>
        <mxCell id="jYVqGs-6-Orzp6eaTr2p-22" value="HTTP/TLS" style="text;html=1;strokeColor=none;fillColor=none;align=center;verticalAlign=middle;whiteSpace=wrap;rounded=0;fontColor=#0000ff;" parent="jYVqGs-6-Orzp6eaTr2p-8" vertex="1">
          <mxGeometry x="190" y="350" width="80" height="20" as="geometry" />
        </mxCell>
        <mxCell id="jYVqGs-6-Orzp6eaTr2p-23" value="HTTP/TLS" style="text;html=1;strokeColor=none;fillColor=none;align=center;verticalAlign=middle;whiteSpace=wrap;rounded=0;fontColor=#0000ff;" parent="jYVqGs-6-Orzp6eaTr2p-8" vertex="1">
          <mxGeometry x="374" y="440" width="80" height="20" as="geometry" />
        </mxCell>
        <mxCell id="jYVqGs-6-Orzp6eaTr2p-24" value="SSH" style="text;html=1;strokeColor=none;fillColor=none;align=center;verticalAlign=middle;whiteSpace=wrap;rounded=0;fontColor=#0000ff;" parent="jYVqGs-6-Orzp6eaTr2p-8" vertex="1">
          <mxGeometry x="540" y="160" width="40" height="20" as="geometry" />
        </mxCell>
        <mxCell id="jYVqGs-6-Orzp6eaTr2p-25" value="SSH" style="text;html=1;strokeColor=none;fillColor=none;align=center;verticalAlign=middle;whiteSpace=wrap;rounded=0;fontColor=#0000ff;" parent="jYVqGs-6-Orzp6eaTr2p-8" vertex="1">
          <mxGeometry x="780" y="160" width="40" height="20" as="geometry" />
        </mxCell>
        <mxCell id="jYVqGs-6-Orzp6eaTr2p-26" value="(Google IDP)" style="text;html=1;strokeColor=none;fillColor=none;align=center;verticalAlign=middle;whiteSpace=wrap;rounded=0;fontColor=#0000ff;" parent="jYVqGs-6-Orzp6eaTr2p-8" vertex="1">
          <mxGeometry x="480" y="620" width="120" height="20" as="geometry" />
        </mxCell>
        <mxCell id="-QTAtKX09mSlTEPiPCkI-75" value="SSH" style="text;html=1;strokeColor=none;fillColor=none;align=center;verticalAlign=middle;whiteSpace=wrap;rounded=0;fontColor=#0000ff;" parent="jYVqGs-6-Orzp6eaTr2p-8" vertex="1">
          <mxGeometry x="320" y="160" width="40" height="20" as="geometry" />
        </mxCell>
        <mxCell id="vUiKdmdn5uc14WwvOCr_-2" value="HTTP/TLS" style="text;html=1;strokeColor=none;fillColor=none;align=center;verticalAlign=middle;whiteSpace=wrap;rounded=0;fontColor=#0000ff;" parent="jYVqGs-6-Orzp6eaTr2p-8" vertex="1">
          <mxGeometry x="290" y="550" width="80" height="20" as="geometry" />
        </mxCell>
        <mxCell id="vUiKdmdn5uc14WwvOCr_-7" value="HTTP/TLS" style="text;html=1;strokeColor=none;fillColor=none;align=center;verticalAlign=middle;whiteSpace=wrap;rounded=0;fontColor=#0000ff;" parent="jYVqGs-6-Orzp6eaTr2p-8" vertex="1">
          <mxGeometry x="200" y="260" width="80" height="20" as="geometry" />
        </mxCell>
        <mxCell id="TmFTIvGwxBlVvHUdlRh2-29" value="PSQL/TLS" style="text;html=1;strokeColor=none;fillColor=none;align=center;verticalAlign=middle;whiteSpace=wrap;rounded=0;fontColor=#0000ff;" vertex="1" parent="jYVqGs-6-Orzp6eaTr2p-8">
          <mxGeometry x="620" y="240" width="80" height="20" as="geometry" />
        </mxCell>
        <mxCell id="TmFTIvGwxBlVvHUdlRh2-30" value="(PostgreSQL)" style="text;html=1;strokeColor=none;fillColor=none;align=center;verticalAlign=middle;whiteSpace=wrap;rounded=0;fontColor=#0000ff;" vertex="1" parent="jYVqGs-6-Orzp6eaTr2p-8">
          <mxGeometry x="720" y="270" width="120" height="20" as="geometry" />
        </mxCell>
        <mxCell id="TmFTIvGwxBlVvHUdlRh2-31" value="(Python)" style="text;html=1;strokeColor=none;fillColor=none;align=center;verticalAlign=middle;whiteSpace=wrap;rounded=0;fontColor=#0000ff;" vertex="1" parent="jYVqGs-6-Orzp6eaTr2p-8">
          <mxGeometry x="480" y="270" width="120" height="20" as="geometry" />
        </mxCell>
        <mxCell id="TmFTIvGwxBlVvHUdlRh2-32" value="SSH" style="text;html=1;strokeColor=none;fillColor=none;align=center;verticalAlign=middle;whiteSpace=wrap;rounded=0;fontColor=#0000ff;" vertex="1" parent="jYVqGs-6-Orzp6eaTr2p-8">
          <mxGeometry x="620" y="160" width="40" height="20" as="geometry" />
        </mxCell>
        <mxCell id="TmFTIvGwxBlVvHUdlRh2-33" value="SSH" style="text;html=1;strokeColor=none;fillColor=none;align=center;verticalAlign=middle;whiteSpace=wrap;rounded=0;fontColor=#0000ff;" vertex="1" parent="jYVqGs-6-Orzp6eaTr2p-8">
          <mxGeometry x="850" y="160" width="40" height="20" as="geometry" />
        </mxCell>
        <mxCell id="TmFTIvGwxBlVvHUdlRh2-34" value="HTTP/TLS" style="text;html=1;strokeColor=none;fillColor=none;align=center;verticalAlign=middle;whiteSpace=wrap;rounded=0;fontColor=#0000ff;" vertex="1" parent="jYVqGs-6-Orzp6eaTr2p-8">
          <mxGeometry x="530" y="500" width="80" height="20" as="geometry" />
        </mxCell>
        <object label="Vertrauensgrenzen" id="EDAqVRk68eKfgAT5x3LY-1">
          <mxCell parent="0" visible="0" />
        </object>
        <mxCell id="vUiKdmdn5uc14WwvOCr_-15" value="" style="endArrow=none;dashed=1;html=1;strokeWidth=6;rounded=0;strokeColor=#ff0000;dashPattern=1 2;" parent="EDAqVRk68eKfgAT5x3LY-1" edge="1">
          <mxGeometry width="50" height="50" relative="1" as="geometry">
            <mxPoint x="210" y="650" as="sourcePoint" />
            <mxPoint x="210" y="30" as="targetPoint" />
          </mxGeometry>
        </mxCell>
        <mxCell id="vUiKdmdn5uc14WwvOCr_-16" value="" style="endArrow=none;dashed=1;html=1;strokeWidth=6;rounded=0;strokeColor=#ff0000;dashPattern=1 2;" parent="EDAqVRk68eKfgAT5x3LY-1" edge="1">
          <mxGeometry width="50" height="50" relative="1" as="geometry">
            <mxPoint x="440" y="550" as="sourcePoint" />
            <mxPoint x="440" y="30" as="targetPoint" />
          </mxGeometry>
        </mxCell>
        <mxCell id="vUiKdmdn5uc14WwvOCr_-17" value="" style="endArrow=none;dashed=1;html=1;strokeWidth=6;rounded=0;strokeColor=#ff0000;dashPattern=1 2;" parent="EDAqVRk68eKfgAT5x3LY-1" edge="1">
          <mxGeometry width="50" height="50" relative="1" as="geometry">
            <mxPoint x="680" y="650" as="sourcePoint" />
            <mxPoint x="680" y="30" as="targetPoint" />
          </mxGeometry>
        </mxCell>
        <mxCell id="vUiKdmdn5uc14WwvOCr_-18" value="" style="endArrow=none;dashed=1;html=1;strokeWidth=6;rounded=0;strokeColor=#ff0000;dashPattern=1 2;" parent="EDAqVRk68eKfgAT5x3LY-1" edge="1">
          <mxGeometry width="50" height="50" relative="1" as="geometry">
            <mxPoint x="20" y="320" as="sourcePoint" />
            <mxPoint x="210" y="320" as="targetPoint" />
          </mxGeometry>
        </mxCell>
        <mxCell id="vUiKdmdn5uc14WwvOCr_-19" value="" style="endArrow=none;dashed=1;html=1;strokeWidth=6;rounded=0;strokeColor=#ff0000;dashPattern=1 2;" parent="EDAqVRk68eKfgAT5x3LY-1" edge="1">
          <mxGeometry width="50" height="50" relative="1" as="geometry">
            <mxPoint x="210" y="180" as="sourcePoint" />
            <mxPoint x="920" y="180" as="targetPoint" />
          </mxGeometry>
        </mxCell>
        <mxCell id="vUiKdmdn5uc14WwvOCr_-29" value="" style="endArrow=none;dashed=1;html=1;strokeWidth=6;rounded=0;strokeColor=#ff0000;dashPattern=1 2;" parent="EDAqVRk68eKfgAT5x3LY-1" edge="1">
          <mxGeometry width="50" height="50" relative="1" as="geometry">
            <mxPoint x="440" y="320" as="sourcePoint" />
            <mxPoint x="680" y="320" as="targetPoint" />
          </mxGeometry>
        </mxCell>
        <mxCell id="TmFTIvGwxBlVvHUdlRh2-35" value="" style="endArrow=none;dashed=1;html=1;strokeWidth=6;rounded=0;strokeColor=#ff0000;dashPattern=1 2;" edge="1" parent="EDAqVRk68eKfgAT5x3LY-1">
          <mxGeometry width="50" height="50" relative="1" as="geometry">
            <mxPoint x="440" y="410" as="sourcePoint" />
            <mxPoint x="680" y="411" as="targetPoint" />
          </mxGeometry>
        </mxCell>
        <mxCell id="TmFTIvGwxBlVvHUdlRh2-36" value="" style="endArrow=none;dashed=1;html=1;strokeWidth=6;rounded=0;strokeColor=#ff0000;dashPattern=1 2;" edge="1" parent="EDAqVRk68eKfgAT5x3LY-1">
          <mxGeometry width="50" height="50" relative="1" as="geometry">
            <mxPoint x="210" y="540" as="sourcePoint" />
            <mxPoint x="670" y="540.5" as="targetPoint" />
          </mxGeometry>
        </mxCell>
        <mxCell id="TmFTIvGwxBlVvHUdlRh2-37" value="" style="endArrow=none;dashed=1;html=1;strokeWidth=6;rounded=0;strokeColor=#ff0000;dashPattern=1 2;" edge="1" parent="EDAqVRk68eKfgAT5x3LY-1">
          <mxGeometry width="50" height="50" relative="1" as="geometry">
            <mxPoint x="680" y="359.5" as="sourcePoint" />
            <mxPoint x="920" y="359.5" as="targetPoint" />
          </mxGeometry>
        </mxCell>
        <mxCell id="TmFTIvGwxBlVvHUdlRh2-38" value="" style="endArrow=none;dashed=1;html=1;strokeWidth=6;rounded=0;strokeColor=#ff0000;dashPattern=1 2;" edge="1" parent="EDAqVRk68eKfgAT5x3LY-1">
          <mxGeometry width="50" height="50" relative="1" as="geometry">
            <mxPoint x="20" y="450" as="sourcePoint" />
            <mxPoint x="210" y="450" as="targetPoint" />
            <Array as="points">
              <mxPoint x="130" y="450" />
            </Array>
          </mxGeometry>
        </mxCell>
        <mxCell id="-QTAtKX09mSlTEPiPCkI-27" value="Schutzobjekte" style="" parent="0" visible="0" />
        <mxCell id="-QTAtKX09mSlTEPiPCkI-28" value="A1" style="whiteSpace=wrap;html=1;aspect=fixed;fillColor=#7777FF;" parent="-QTAtKX09mSlTEPiPCkI-27" vertex="1">
          <mxGeometry x="280" y="300" width="20" height="20" as="geometry" />
        </mxCell>
        <mxCell id="-QTAtKX09mSlTEPiPCkI-29" value="A2" style="whiteSpace=wrap;html=1;aspect=fixed;fillColor=#7777FF;" parent="-QTAtKX09mSlTEPiPCkI-27" vertex="1">
          <mxGeometry x="480" y="230" width="20" height="20" as="geometry" />
        </mxCell>
        <mxCell id="-QTAtKX09mSlTEPiPCkI-30" value="A3" style="whiteSpace=wrap;html=1;aspect=fixed;fillColor=#7777FF;" parent="-QTAtKX09mSlTEPiPCkI-27" vertex="1">
          <mxGeometry x="720" y="230" width="20" height="20" as="geometry" />
        </mxCell>
        <mxCell id="-QTAtKX09mSlTEPiPCkI-31" value="A19" style="whiteSpace=wrap;html=1;aspect=fixed;fillColor=#7777FF;" parent="-QTAtKX09mSlTEPiPCkI-27" vertex="1">
          <mxGeometry x="480" y="331" width="20" height="20" as="geometry" />
        </mxCell>
        <mxCell id="-QTAtKX09mSlTEPiPCkI-32" value="A4" style="whiteSpace=wrap;html=1;aspect=fixed;fillColor=#aaaaFF;" parent="-QTAtKX09mSlTEPiPCkI-27" vertex="1">
          <mxGeometry x="320" y="300" width="20" height="20" as="geometry" />
        </mxCell>
        <mxCell id="-QTAtKX09mSlTEPiPCkI-33" value="A5" style="whiteSpace=wrap;html=1;aspect=fixed;fillColor=#aaaaFF;" parent="-QTAtKX09mSlTEPiPCkI-27" vertex="1">
          <mxGeometry x="406" y="350" width="20" height="20" as="geometry" />
        </mxCell>
        <mxCell id="-QTAtKX09mSlTEPiPCkI-34" value="A7" style="whiteSpace=wrap;html=1;aspect=fixed;fillColor=#aaaaFF;" parent="-QTAtKX09mSlTEPiPCkI-27" vertex="1">
          <mxGeometry x="530" y="295" width="20" height="20" as="geometry" />
        </mxCell>
        <mxCell id="-QTAtKX09mSlTEPiPCkI-35" value="A8" style="whiteSpace=wrap;html=1;aspect=fixed;fillColor=#aaaaFF;" parent="-QTAtKX09mSlTEPiPCkI-27" vertex="1">
          <mxGeometry x="184" y="349" width="20" height="20" as="geometry" />
        </mxCell>
        <mxCell id="-QTAtKX09mSlTEPiPCkI-36" value="A6" style="whiteSpace=wrap;html=1;aspect=fixed;fillColor=#aaaaFF;" parent="-QTAtKX09mSlTEPiPCkI-27" vertex="1">
          <mxGeometry x="540" y="230" width="20" height="20" as="geometry" />
        </mxCell>
        <mxCell id="-QTAtKX09mSlTEPiPCkI-37" value="A11" style="whiteSpace=wrap;html=1;aspect=fixed;fillColor=#aaaaFF;" parent="-QTAtKX09mSlTEPiPCkI-27" vertex="1">
          <mxGeometry x="820" y="230" width="20" height="20" as="geometry" />
        </mxCell>
        <mxCell id="-QTAtKX09mSlTEPiPCkI-38" value="A12" style="whiteSpace=wrap;html=1;aspect=fixed;fillColor=#aaaaFF;" parent="-QTAtKX09mSlTEPiPCkI-27" vertex="1">
          <mxGeometry x="770" y="339" width="20" height="20" as="geometry" />
        </mxCell>
        <mxCell id="-QTAtKX09mSlTEPiPCkI-39" value="A9" style="whiteSpace=wrap;html=1;aspect=fixed;fillColor=#aaaaFF;" parent="-QTAtKX09mSlTEPiPCkI-27" vertex="1">
          <mxGeometry x="204" y="349" width="20" height="20" as="geometry" />
        </mxCell>
        <mxCell id="-QTAtKX09mSlTEPiPCkI-40" value="A13" style="whiteSpace=wrap;html=1;aspect=fixed;fillColor=#aaaaFF;" parent="-QTAtKX09mSlTEPiPCkI-27" vertex="1">
          <mxGeometry x="340" y="300" width="20" height="20" as="geometry" />
        </mxCell>
        <mxCell id="-QTAtKX09mSlTEPiPCkI-42" value="A15" style="whiteSpace=wrap;html=1;aspect=fixed;fillColor=#aaaaFF;" parent="-QTAtKX09mSlTEPiPCkI-27" vertex="1">
          <mxGeometry x="530" y="160" width="20" height="20" as="geometry" />
        </mxCell>
        <mxCell id="-QTAtKX09mSlTEPiPCkI-43" value="A16" style="whiteSpace=wrap;html=1;aspect=fixed;fillColor=#aaaaFF;" parent="-QTAtKX09mSlTEPiPCkI-27" vertex="1">
          <mxGeometry x="770" y="160" width="20" height="20" as="geometry" />
        </mxCell>
        <mxCell id="-QTAtKX09mSlTEPiPCkI-44" value="A17" style="whiteSpace=wrap;html=1;aspect=fixed;fillColor=#aaaaFF;" parent="-QTAtKX09mSlTEPiPCkI-27" vertex="1">
          <mxGeometry x="420" y="249" width="20" height="20" as="geometry" />
        </mxCell>
        <mxCell id="-QTAtKX09mSlTEPiPCkI-45" value="A10" style="whiteSpace=wrap;html=1;aspect=fixed;fillColor=#aaaaFF;" parent="-QTAtKX09mSlTEPiPCkI-27" vertex="1">
          <mxGeometry x="224" y="349" width="20" height="20" as="geometry" />
        </mxCell>
        <mxCell id="-QTAtKX09mSlTEPiPCkI-46" value="A18" style="whiteSpace=wrap;html=1;aspect=fixed;fillColor=#aaaaFF;" parent="-QTAtKX09mSlTEPiPCkI-27" vertex="1">
          <mxGeometry x="244" y="349" width="20" height="20" as="geometry" />
        </mxCell>
        <mxCell id="-QTAtKX09mSlTEPiPCkI-48" value="A8" style="whiteSpace=wrap;html=1;aspect=fixed;fillColor=#aaaaFF;" parent="-QTAtKX09mSlTEPiPCkI-27" vertex="1">
          <mxGeometry x="380" y="249" width="20" height="20" as="geometry" />
        </mxCell>
        <mxCell id="-QTAtKX09mSlTEPiPCkI-49" value="A8" style="whiteSpace=wrap;html=1;aspect=fixed;fillColor=#aaaaFF;" parent="-QTAtKX09mSlTEPiPCkI-27" vertex="1">
          <mxGeometry x="627" y="249" width="20" height="20" as="geometry" />
        </mxCell>
        <mxCell id="-QTAtKX09mSlTEPiPCkI-50" value="A8" style="whiteSpace=wrap;html=1;aspect=fixed;fillColor=#aaaaFF;" parent="-QTAtKX09mSlTEPiPCkI-27" vertex="1">
          <mxGeometry x="780" y="230" width="20" height="20" as="geometry" />
        </mxCell>
        <mxCell id="-QTAtKX09mSlTEPiPCkI-57" value="A10" style="whiteSpace=wrap;html=1;aspect=fixed;fillColor=#aaaaFF;" parent="-QTAtKX09mSlTEPiPCkI-27" vertex="1">
          <mxGeometry x="667" y="249" width="20" height="20" as="geometry" />
        </mxCell>
        <mxCell id="-QTAtKX09mSlTEPiPCkI-59" value="A9" style="whiteSpace=wrap;html=1;aspect=fixed;fillColor=#aaaaFF;" parent="-QTAtKX09mSlTEPiPCkI-27" vertex="1">
          <mxGeometry x="647" y="249" width="20" height="20" as="geometry" />
        </mxCell>
        <mxCell id="-QTAtKX09mSlTEPiPCkI-62" value="A18" style="whiteSpace=wrap;html=1;aspect=fixed;fillColor=#aaaaFF;" parent="-QTAtKX09mSlTEPiPCkI-27" vertex="1">
          <mxGeometry x="440" y="249" width="20" height="20" as="geometry" />
        </mxCell>
        <mxCell id="-QTAtKX09mSlTEPiPCkI-63" value="A18" style="whiteSpace=wrap;html=1;aspect=fixed;fillColor=#aaaaFF;" parent="-QTAtKX09mSlTEPiPCkI-27" vertex="1">
          <mxGeometry x="580" y="230" width="20" height="20" as="geometry" />
        </mxCell>
        <mxCell id="-QTAtKX09mSlTEPiPCkI-71" value="A17" style="whiteSpace=wrap;html=1;aspect=fixed;fillColor=#aaaaFF;" parent="-QTAtKX09mSlTEPiPCkI-27" vertex="1">
          <mxGeometry x="560" y="230" width="20" height="20" as="geometry" />
        </mxCell>
        <mxCell id="-QTAtKX09mSlTEPiPCkI-77" value="A20" style="whiteSpace=wrap;html=1;aspect=fixed;fillColor=#aaaaFF;" parent="-QTAtKX09mSlTEPiPCkI-27" vertex="1">
          <mxGeometry x="580" y="331" width="20" height="20" as="geometry" />
        </mxCell>
        <mxCell id="vUiKdmdn5uc14WwvOCr_-30" value="A14" style="whiteSpace=wrap;html=1;aspect=fixed;fillColor=#aaaaFF;" parent="-QTAtKX09mSlTEPiPCkI-27" vertex="1">
          <mxGeometry x="310" y="160" width="20" height="20" as="geometry" />
        </mxCell>
        <mxCell id="TmFTIvGwxBlVvHUdlRh2-47" value="A11" style="whiteSpace=wrap;html=1;aspect=fixed;fillColor=#aaaaFF;" vertex="1" parent="-QTAtKX09mSlTEPiPCkI-27">
          <mxGeometry x="820" y="430" width="20" height="20" as="geometry" />
        </mxCell>
        <mxCell id="TmFTIvGwxBlVvHUdlRh2-49" value="A9" style="whiteSpace=wrap;html=1;aspect=fixed;fillColor=#aaaaFF;" vertex="1" parent="-QTAtKX09mSlTEPiPCkI-27">
          <mxGeometry x="780" y="430" width="20" height="20" as="geometry" />
        </mxCell>
        <mxCell id="TmFTIvGwxBlVvHUdlRh2-50" value="A10" style="whiteSpace=wrap;html=1;aspect=fixed;fillColor=#aaaaFF;" vertex="1" parent="-QTAtKX09mSlTEPiPCkI-27">
          <mxGeometry x="800" y="430" width="20" height="20" as="geometry" />
        </mxCell>
        <mxCell id="TmFTIvGwxBlVvHUdlRh2-54" value="A10" style="whiteSpace=wrap;html=1;aspect=fixed;fillColor=#aaaaFF;" vertex="1" parent="-QTAtKX09mSlTEPiPCkI-27">
          <mxGeometry x="667" y="449" width="20" height="20" as="geometry" />
        </mxCell>
        <mxCell id="TmFTIvGwxBlVvHUdlRh2-55" value="A9" style="whiteSpace=wrap;html=1;aspect=fixed;fillColor=#aaaaFF;" vertex="1" parent="-QTAtKX09mSlTEPiPCkI-27">
          <mxGeometry x="647" y="449" width="20" height="20" as="geometry" />
        </mxCell>
        <mxCell id="TmFTIvGwxBlVvHUdlRh2-57" value="A8" style="whiteSpace=wrap;html=1;aspect=fixed;fillColor=#aaaaFF;" vertex="1" parent="-QTAtKX09mSlTEPiPCkI-27">
          <mxGeometry x="204" y="489" width="20" height="20" as="geometry" />
        </mxCell>
        <mxCell id="TmFTIvGwxBlVvHUdlRh2-58" value="A9" style="whiteSpace=wrap;html=1;aspect=fixed;fillColor=#aaaaFF;" vertex="1" parent="-QTAtKX09mSlTEPiPCkI-27">
          <mxGeometry x="224" y="489" width="20" height="20" as="geometry" />
        </mxCell>
        <mxCell id="TmFTIvGwxBlVvHUdlRh2-59" value="A10" style="whiteSpace=wrap;html=1;aspect=fixed;fillColor=#aaaaFF;" vertex="1" parent="-QTAtKX09mSlTEPiPCkI-27">
          <mxGeometry x="244" y="489" width="20" height="20" as="geometry" />
        </mxCell>
        <mxCell id="TmFTIvGwxBlVvHUdlRh2-60" value="A18" style="whiteSpace=wrap;html=1;aspect=fixed;fillColor=#aaaaFF;" vertex="1" parent="-QTAtKX09mSlTEPiPCkI-27">
          <mxGeometry x="264" y="489" width="20" height="20" as="geometry" />
        </mxCell>
        <mxCell id="TmFTIvGwxBlVvHUdlRh2-61" value="A10" style="whiteSpace=wrap;html=1;aspect=fixed;fillColor=#aaaaFF;" vertex="1" parent="-QTAtKX09mSlTEPiPCkI-27">
          <mxGeometry x="224" y="319" width="20" height="20" as="geometry" />
        </mxCell>
        <mxCell id="TmFTIvGwxBlVvHUdlRh2-62" value="A18" style="whiteSpace=wrap;html=1;aspect=fixed;fillColor=#aaaaFF;" vertex="1" parent="-QTAtKX09mSlTEPiPCkI-27">
          <mxGeometry x="244" y="319" width="20" height="20" as="geometry" />
        </mxCell>
        <mxCell id="TmFTIvGwxBlVvHUdlRh2-63" value="A21" style="whiteSpace=wrap;html=1;aspect=fixed;fillColor=#aaaaFF;" vertex="1" parent="-QTAtKX09mSlTEPiPCkI-27">
          <mxGeometry x="540" y="430" width="20" height="20" as="geometry" />
        </mxCell>
        <mxCell id="TmFTIvGwxBlVvHUdlRh2-64" value="A18" style="whiteSpace=wrap;html=1;aspect=fixed;fillColor=#aaaaFF;" vertex="1" parent="-QTAtKX09mSlTEPiPCkI-27">
          <mxGeometry x="580" y="430" width="20" height="20" as="geometry" />
        </mxCell>
        <mxCell id="TmFTIvGwxBlVvHUdlRh2-65" value="A17" style="whiteSpace=wrap;html=1;aspect=fixed;fillColor=#aaaaFF;" vertex="1" parent="-QTAtKX09mSlTEPiPCkI-27">
          <mxGeometry x="560" y="430" width="20" height="20" as="geometry" />
        </mxCell>
        <mxCell id="TmFTIvGwxBlVvHUdlRh2-66" value="A9" style="whiteSpace=wrap;html=1;aspect=fixed;fillColor=#aaaaFF;" vertex="1" parent="-QTAtKX09mSlTEPiPCkI-27">
          <mxGeometry x="380" y="449" width="20" height="20" as="geometry" />
        </mxCell>
        <mxCell id="TmFTIvGwxBlVvHUdlRh2-67" value="A10" style="whiteSpace=wrap;html=1;aspect=fixed;fillColor=#aaaaFF;" vertex="1" parent="-QTAtKX09mSlTEPiPCkI-27">
          <mxGeometry x="400" y="449" width="20" height="20" as="geometry" />
        </mxCell>
        <mxCell id="TmFTIvGwxBlVvHUdlRh2-69" value="A9" style="whiteSpace=wrap;html=1;aspect=fixed;fillColor=#aaaaFF;" vertex="1" parent="-QTAtKX09mSlTEPiPCkI-27">
          <mxGeometry x="800" y="230" width="20" height="20" as="geometry" />
        </mxCell>
        <mxCell id="TmFTIvGwxBlVvHUdlRh2-71" value="A9" style="whiteSpace=wrap;html=1;aspect=fixed;fillColor=#aaaaFF;" vertex="1" parent="-QTAtKX09mSlTEPiPCkI-27">
          <mxGeometry x="400" y="249" width="20" height="20" as="geometry" />
        </mxCell>
        <mxCell id="TmFTIvGwxBlVvHUdlRh2-72" value="A17" style="whiteSpace=wrap;html=1;aspect=fixed;fillColor=#aaaaFF;" vertex="1" parent="-QTAtKX09mSlTEPiPCkI-27">
          <mxGeometry x="420" y="449" width="20" height="20" as="geometry" />
        </mxCell>
        <mxCell id="TmFTIvGwxBlVvHUdlRh2-73" value="A18" style="whiteSpace=wrap;html=1;aspect=fixed;fillColor=#aaaaFF;" vertex="1" parent="-QTAtKX09mSlTEPiPCkI-27">
          <mxGeometry x="440" y="449" width="20" height="20" as="geometry" />
        </mxCell>
        <mxCell id="TmFTIvGwxBlVvHUdlRh2-74" value="A23" style="whiteSpace=wrap;html=1;aspect=fixed;fillColor=#aaaaFF;" vertex="1" parent="-QTAtKX09mSlTEPiPCkI-27">
          <mxGeometry x="770" y="360" width="20" height="20" as="geometry" />
        </mxCell>
        <mxCell id="TmFTIvGwxBlVvHUdlRh2-85" value="A24" style="whiteSpace=wrap;html=1;aspect=fixed;fillColor=#7777FF;" vertex="1" parent="-QTAtKX09mSlTEPiPCkI-27">
          <mxGeometry x="480" y="430" width="20" height="20" as="geometry" />
        </mxCell>
        <mxCell id="TmFTIvGwxBlVvHUdlRh2-86" value="A9" style="whiteSpace=wrap;html=1;aspect=fixed;fillColor=#aaaaFF;" vertex="1" parent="-QTAtKX09mSlTEPiPCkI-27">
          <mxGeometry x="530" y="510" width="20" height="20" as="geometry" />
        </mxCell>
        <mxCell id="TmFTIvGwxBlVvHUdlRh2-87" value="A9" style="whiteSpace=wrap;html=1;aspect=fixed;fillColor=#aaaaFF;" vertex="1" parent="-QTAtKX09mSlTEPiPCkI-27">
          <mxGeometry x="404" y="555" width="20" height="20" as="geometry" />
        </mxCell>
        <mxCell id="TmFTIvGwxBlVvHUdlRh2-88" value="A9" style="whiteSpace=wrap;html=1;aspect=fixed;fillColor=#aaaaFF;" vertex="1" parent="-QTAtKX09mSlTEPiPCkI-27">
          <mxGeometry x="404" y="585" width="20" height="20" as="geometry" />
        </mxCell>
        <mxCell id="TmFTIvGwxBlVvHUdlRh2-89" value="A15" style="whiteSpace=wrap;html=1;aspect=fixed;fillColor=#aaaaFF;" vertex="1" parent="-QTAtKX09mSlTEPiPCkI-27">
          <mxGeometry x="610" y="160" width="20" height="20" as="geometry" />
        </mxCell>
        <mxCell id="TmFTIvGwxBlVvHUdlRh2-90" value="A16" style="whiteSpace=wrap;html=1;aspect=fixed;fillColor=#aaaaFF;" vertex="1" parent="-QTAtKX09mSlTEPiPCkI-27">
          <mxGeometry x="840" y="160" width="20" height="20" as="geometry" />
        </mxCell>
        <mxCell id="TmFTIvGwxBlVvHUdlRh2-91" value="A25" style="whiteSpace=wrap;html=1;aspect=fixed;fillColor=#7777FF;" vertex="1" parent="-QTAtKX09mSlTEPiPCkI-27">
          <mxGeometry x="720" y="430" width="20" height="20" as="geometry" />
        </mxCell>
        <mxCell id="TmFTIvGwxBlVvHUdlRh2-128" value="A22" style="whiteSpace=wrap;html=1;aspect=fixed;fillColor=#aaaaFF;" vertex="1" parent="-QTAtKX09mSlTEPiPCkI-27">
          <mxGeometry x="530" y="400" width="20" height="20" as="geometry" />
        </mxCell>
        <mxCell id="iUlAiYw8dszu4N_6vodb-1" value="Sicherheitsmaßnahmen" style="" parent="0" visible="0" />
        <mxCell id="iUlAiYw8dszu4N_6vodb-2" value="SC1" style="whiteSpace=wrap;html=1;aspect=fixed;fillColor=#77FF77;opacity=60;" parent="iUlAiYw8dszu4N_6vodb-1" vertex="1">
          <mxGeometry x="230" y="310" width="20" height="20" as="geometry" />
        </mxCell>
        <mxCell id="iUlAiYw8dszu4N_6vodb-3" value="SC1" style="whiteSpace=wrap;html=1;aspect=fixed;fillColor=#77FF77;opacity=60;" parent="iUlAiYw8dszu4N_6vodb-1" vertex="1">
          <mxGeometry x="414" y="260" width="20" height="20" as="geometry" />
        </mxCell>
        <mxCell id="iUlAiYw8dszu4N_6vodb-4" value="SC1" style="whiteSpace=wrap;html=1;aspect=fixed;fillColor=#77FF77;opacity=60;" parent="iUlAiYw8dszu4N_6vodb-1" vertex="1">
          <mxGeometry x="650" y="260" width="20" height="20" as="geometry" />
        </mxCell>
        <mxCell id="iUlAiYw8dszu4N_6vodb-6" value="SC1" style="whiteSpace=wrap;html=1;aspect=fixed;fillColor=#77FF77;opacity=60;" parent="iUlAiYw8dszu4N_6vodb-1" vertex="1">
          <mxGeometry x="780" y="350" width="20" height="20" as="geometry" />
        </mxCell>
        <mxCell id="iUlAiYw8dszu4N_6vodb-8" value="SC1" style="whiteSpace=wrap;html=1;aspect=fixed;fillColor=#77FF77;opacity=60;" parent="iUlAiYw8dszu4N_6vodb-1" vertex="1">
          <mxGeometry x="540" y="310" width="20" height="20" as="geometry" />
        </mxCell>
        <mxCell id="iUlAiYw8dszu4N_6vodb-11" value="SC2" style="whiteSpace=wrap;html=1;aspect=fixed;fillColor=#77FF77;opacity=60;" parent="iUlAiYw8dszu4N_6vodb-1" vertex="1">
          <mxGeometry x="320" y="170" width="20" height="20" as="geometry" />
        </mxCell>
        <mxCell id="iUlAiYw8dszu4N_6vodb-12" value="SC2" style="whiteSpace=wrap;html=1;aspect=fixed;fillColor=#77FF77;opacity=60;" parent="iUlAiYw8dszu4N_6vodb-1" vertex="1">
          <mxGeometry x="540" y="170" width="20" height="20" as="geometry" />
        </mxCell>
        <mxCell id="iUlAiYw8dszu4N_6vodb-13" value="SC2" style="whiteSpace=wrap;html=1;aspect=fixed;fillColor=#77FF77;opacity=60;" parent="iUlAiYw8dszu4N_6vodb-1" vertex="1">
          <mxGeometry x="780" y="170" width="20" height="20" as="geometry" />
        </mxCell>
        <mxCell id="iUlAiYw8dszu4N_6vodb-15" value="SC3" style="whiteSpace=wrap;html=1;aspect=fixed;fillColor=#77FF77;opacity=60;" parent="iUlAiYw8dszu4N_6vodb-1" vertex="1">
          <mxGeometry x="250" y="330" width="20" height="20" as="geometry" />
        </mxCell>
        <mxCell id="iUlAiYw8dszu4N_6vodb-17" value="SC3" style="whiteSpace=wrap;html=1;aspect=fixed;fillColor=#77FF77;opacity=60;" parent="iUlAiYw8dszu4N_6vodb-1" vertex="1">
          <mxGeometry x="460" y="250" width="20" height="20" as="geometry" />
        </mxCell>
        <mxCell id="iUlAiYw8dszu4N_6vodb-18" value="SC4" style="whiteSpace=wrap;html=1;aspect=fixed;fillColor=#77FF77;opacity=60;" parent="iUlAiYw8dszu4N_6vodb-1" vertex="1">
          <mxGeometry x="460" y="270" width="20" height="20" as="geometry" />
        </mxCell>
        <mxCell id="iUlAiYw8dszu4N_6vodb-20" value="SC5" style="whiteSpace=wrap;html=1;aspect=fixed;fillColor=#77FF77;opacity=60;" parent="iUlAiYw8dszu4N_6vodb-1" vertex="1">
          <mxGeometry x="270" y="330" width="20" height="20" as="geometry" />
        </mxCell>
        <mxCell id="iUlAiYw8dszu4N_6vodb-24" value="SC6" style="whiteSpace=wrap;html=1;aspect=fixed;fillColor=#77FF77;opacity=60;" parent="iUlAiYw8dszu4N_6vodb-1" vertex="1">
          <mxGeometry x="460" y="290" width="20" height="20" as="geometry" />
        </mxCell>
        <mxCell id="iUlAiYw8dszu4N_6vodb-25" value="SC7" style="whiteSpace=wrap;html=1;aspect=fixed;fillColor=#77FF77;opacity=60;" parent="iUlAiYw8dszu4N_6vodb-1" vertex="1">
          <mxGeometry x="480" y="250" width="20" height="20" as="geometry" />
        </mxCell>
        <mxCell id="iUlAiYw8dszu4N_6vodb-26" value="SC8" style="whiteSpace=wrap;html=1;aspect=fixed;fillColor=#77FF77;opacity=60;" parent="iUlAiYw8dszu4N_6vodb-1" vertex="1">
          <mxGeometry x="480" y="270" width="20" height="20" as="geometry" />
        </mxCell>
        <mxCell id="iUlAiYw8dszu4N_6vodb-29" value="SC&lt;br&gt;10" style="whiteSpace=wrap;html=1;aspect=fixed;fillColor=#77FF77;opacity=60;fontSize=10;" parent="iUlAiYw8dszu4N_6vodb-1" vertex="1">
          <mxGeometry x="290" y="330" width="20" height="20" as="geometry" />
        </mxCell>
        <mxCell id="iUlAiYw8dszu4N_6vodb-30" value="SC&lt;br&gt;10" style="whiteSpace=wrap;html=1;aspect=fixed;fillColor=#77FF77;opacity=60;fontSize=10;" parent="iUlAiYw8dszu4N_6vodb-1" vertex="1">
          <mxGeometry x="480" y="290" width="20" height="20" as="geometry" />
        </mxCell>
        <mxCell id="iUlAiYw8dszu4N_6vodb-31" value="SC&lt;br&gt;10" style="whiteSpace=wrap;html=1;aspect=fixed;fillColor=#77FF77;opacity=60;fontSize=10;" parent="iUlAiYw8dszu4N_6vodb-1" vertex="1">
          <mxGeometry x="710" y="260" width="20" height="20" as="geometry" />
        </mxCell>
        <mxCell id="iUlAiYw8dszu4N_6vodb-32" value="SC9" style="whiteSpace=wrap;html=1;aspect=fixed;fillColor=#77FF77;opacity=60;fontSize=10;" parent="iUlAiYw8dszu4N_6vodb-1" vertex="1">
          <mxGeometry x="330" y="310" width="20" height="20" as="geometry" />
        </mxCell>
        <mxCell id="iUlAiYw8dszu4N_6vodb-33" value="SC9" style="whiteSpace=wrap;html=1;aspect=fixed;fillColor=#77FF77;opacity=60;fontSize=10;" parent="iUlAiYw8dszu4N_6vodb-1" vertex="1">
          <mxGeometry x="590" y="240" width="20" height="20" as="geometry" />
        </mxCell>
        <mxCell id="iUlAiYw8dszu4N_6vodb-34" value="SC9" style="whiteSpace=wrap;html=1;aspect=fixed;fillColor=#77FF77;opacity=60;fontSize=10;" parent="iUlAiYw8dszu4N_6vodb-1" vertex="1">
          <mxGeometry x="827" y="240" width="20" height="20" as="geometry" />
        </mxCell>
        <mxCell id="iUlAiYw8dszu4N_6vodb-35" value="SC9" style="whiteSpace=wrap;html=1;aspect=fixed;fillColor=#77FF77;opacity=60;fontSize=10;" parent="iUlAiYw8dszu4N_6vodb-1" vertex="1">
          <mxGeometry x="590" y="340" width="20" height="20" as="geometry" />
        </mxCell>
        <mxCell id="TmFTIvGwxBlVvHUdlRh2-92" value="SC2" style="whiteSpace=wrap;html=1;aspect=fixed;fillColor=#77FF77;opacity=60;" vertex="1" parent="iUlAiYw8dszu4N_6vodb-1">
          <mxGeometry x="620" y="170" width="20" height="20" as="geometry" />
        </mxCell>
        <mxCell id="TmFTIvGwxBlVvHUdlRh2-93" value="SC2" style="whiteSpace=wrap;html=1;aspect=fixed;fillColor=#77FF77;opacity=60;" vertex="1" parent="iUlAiYw8dszu4N_6vodb-1">
          <mxGeometry x="850" y="170" width="20" height="20" as="geometry" />
        </mxCell>
        <mxCell id="TmFTIvGwxBlVvHUdlRh2-96" value="SC1" style="whiteSpace=wrap;html=1;aspect=fixed;fillColor=#77FF77;opacity=60;" vertex="1" parent="iUlAiYw8dszu4N_6vodb-1">
          <mxGeometry x="230" y="500" width="20" height="20" as="geometry" />
        </mxCell>
        <mxCell id="TmFTIvGwxBlVvHUdlRh2-98" value="SC3" style="whiteSpace=wrap;html=1;aspect=fixed;fillColor=#77FF77;opacity=60;" vertex="1" parent="iUlAiYw8dszu4N_6vodb-1">
          <mxGeometry x="250" y="360" width="20" height="20" as="geometry" />
        </mxCell>
        <mxCell id="TmFTIvGwxBlVvHUdlRh2-99" value="SC5" style="whiteSpace=wrap;html=1;aspect=fixed;fillColor=#77FF77;opacity=60;" vertex="1" parent="iUlAiYw8dszu4N_6vodb-1">
          <mxGeometry x="270" y="360" width="20" height="20" as="geometry" />
        </mxCell>
        <mxCell id="TmFTIvGwxBlVvHUdlRh2-100" value="SC&lt;br&gt;10" style="whiteSpace=wrap;html=1;aspect=fixed;fillColor=#77FF77;opacity=60;fontSize=10;" vertex="1" parent="iUlAiYw8dszu4N_6vodb-1">
          <mxGeometry x="290" y="360" width="20" height="20" as="geometry" />
        </mxCell>
        <mxCell id="TmFTIvGwxBlVvHUdlRh2-104" value="SC3" style="whiteSpace=wrap;html=1;aspect=fixed;fillColor=#77FF77;opacity=60;" vertex="1" parent="iUlAiYw8dszu4N_6vodb-1">
          <mxGeometry x="290" y="440" width="20" height="20" as="geometry" />
        </mxCell>
        <mxCell id="TmFTIvGwxBlVvHUdlRh2-105" value="SC5" style="whiteSpace=wrap;html=1;aspect=fixed;fillColor=#77FF77;opacity=60;" vertex="1" parent="iUlAiYw8dszu4N_6vodb-1">
          <mxGeometry x="290" y="420" width="20" height="20" as="geometry" />
        </mxCell>
        <mxCell id="TmFTIvGwxBlVvHUdlRh2-106" value="SC&lt;br&gt;10" style="whiteSpace=wrap;html=1;aspect=fixed;fillColor=#77FF77;opacity=60;fontSize=10;" vertex="1" parent="iUlAiYw8dszu4N_6vodb-1">
          <mxGeometry x="290" y="400" width="20" height="20" as="geometry" />
        </mxCell>
        <mxCell id="TmFTIvGwxBlVvHUdlRh2-112" value="SC1" style="whiteSpace=wrap;html=1;aspect=fixed;fillColor=#77FF77;opacity=60;" vertex="1" parent="iUlAiYw8dszu4N_6vodb-1">
          <mxGeometry x="540" y="520" width="20" height="20" as="geometry" />
        </mxCell>
        <mxCell id="TmFTIvGwxBlVvHUdlRh2-113" value="SC1" style="whiteSpace=wrap;html=1;aspect=fixed;fillColor=#77FF77;opacity=60;" vertex="1" parent="iUlAiYw8dszu4N_6vodb-1">
          <mxGeometry x="408" y="463" width="20" height="20" as="geometry" />
        </mxCell>
        <mxCell id="TmFTIvGwxBlVvHUdlRh2-114" value="SC1" style="whiteSpace=wrap;html=1;aspect=fixed;fillColor=#77FF77;opacity=60;" vertex="1" parent="iUlAiYw8dszu4N_6vodb-1">
          <mxGeometry x="656" y="463" width="20" height="20" as="geometry" />
        </mxCell>
        <mxCell id="TmFTIvGwxBlVvHUdlRh2-117" value="SC9" style="whiteSpace=wrap;html=1;aspect=fixed;fillColor=#77FF77;opacity=60;fontSize=10;" vertex="1" parent="iUlAiYw8dszu4N_6vodb-1">
          <mxGeometry x="590" y="440" width="20" height="20" as="geometry" />
        </mxCell>
        <mxCell id="TmFTIvGwxBlVvHUdlRh2-118" value="SC&lt;br&gt;10" style="whiteSpace=wrap;html=1;aspect=fixed;fillColor=#77FF77;opacity=60;fontSize=10;" vertex="1" parent="iUlAiYw8dszu4N_6vodb-1">
          <mxGeometry x="480" y="450" width="20" height="20" as="geometry" />
        </mxCell>
        <mxCell id="TmFTIvGwxBlVvHUdlRh2-119" value="SC8" style="whiteSpace=wrap;html=1;aspect=fixed;fillColor=#77FF77;opacity=60;" vertex="1" parent="iUlAiYw8dszu4N_6vodb-1">
          <mxGeometry x="460" y="450" width="20" height="20" as="geometry" />
        </mxCell>
        <mxCell id="TmFTIvGwxBlVvHUdlRh2-120" value="SC9" style="whiteSpace=wrap;html=1;aspect=fixed;fillColor=#77FF77;opacity=60;fontSize=10;" vertex="1" parent="iUlAiYw8dszu4N_6vodb-1">
          <mxGeometry x="827" y="440" width="20" height="20" as="geometry" />
        </mxCell>
        <mxCell id="TmFTIvGwxBlVvHUdlRh2-121" value="SC1" style="whiteSpace=wrap;html=1;aspect=fixed;fillColor=#77FF77;opacity=60;" vertex="1" parent="iUlAiYw8dszu4N_6vodb-1">
          <mxGeometry x="420" y="360" width="20" height="20" as="geometry" />
        </mxCell>
        <mxCell id="TmFTIvGwxBlVvHUdlRh2-122" value="SC3" style="whiteSpace=wrap;html=1;aspect=fixed;fillColor=#77FF77;opacity=60;" vertex="1" parent="iUlAiYw8dszu4N_6vodb-1">
          <mxGeometry x="470" y="470" width="20" height="20" as="geometry" />
        </mxCell>
        <mxCell id="TmFTIvGwxBlVvHUdlRh2-123" value="SC&lt;br&gt;10" style="whiteSpace=wrap;html=1;aspect=fixed;fillColor=#77FF77;opacity=60;fontSize=10;" vertex="1" parent="iUlAiYw8dszu4N_6vodb-1">
          <mxGeometry x="710" y="460" width="20" height="20" as="geometry" />
        </mxCell>
        <mxCell id="TmFTIvGwxBlVvHUdlRh2-127" value="SC1" style="whiteSpace=wrap;html=1;aspect=fixed;fillColor=#77FF77;opacity=60;" vertex="1" parent="iUlAiYw8dszu4N_6vodb-1">
          <mxGeometry x="540" y="410" width="20" height="20" as="geometry" />
        </mxCell>
      </root>
    </mxGraphModel>
  </diagram>
</mxfile>
